<svg viewBox="0 0 457 600" xmlns="http://www.w3.org/2000/svg" xml:space="preserve" style="fill-rule:evenodd;clip-rule:evenodd;stroke-linejoin:round;stroke-miterlimit:2"><path d="M12.031 0C6.967 0 3 3.075 3 7v13.25C3 22.244 6 24 12.029 24 17.969 24 21 22.252 21 20.25V7c0-3.925-3.939-7-8.969-7Zm0 1c4.295 0 7.685 2.437 7.943 5.612C18.472 5.654 15.468 5 12 5c-3.467 0-6.472.654-7.975 1.612C4.286 3.437 7.704 1 12.031 1Zm3.763 21.154c-.402.29 1.456.448.96.443l2.863-1.6c.659-.04-2.411-3.571-1.784-3.779-6.688 1.317-6.21 3.743-2.039 4.936ZM12.078 9.781c-2.052 0-6.489-.39-6.489-1.391C5.589 7.38 9.575 7 12.078 7c2.569 0 6.511.39 6.511 1.391 0 1.01-4.41 1.39-6.511 1.39Z" style="fill:#c30000;fill-rule:nonzero" transform="matrix(25 0 0 25 -72 0)"/><g transform="translate(-33.58 77.546)"><path d="M202.042 199.238c-6.938-2.103-14.268 1.82-16.371 8.759l-55.138 182.045c-2.102 6.938 1.82 14.268 8.759 16.37 1.27.385 2.549.568 3.811.568 5.633 0 10.841-3.656 12.56-9.326l55.138-182.045c2.1-6.941-1.82-14.271-8.759-16.371ZM268.994 199.238c-6.93-2.103-14.268 1.82-16.37 8.759l-55.138 182.045c-2.102 6.938 1.82 14.268 8.759 16.37a13.1 13.1 0 0 0 3.811.568c5.633 0 10.841-3.656 12.56-9.326l55.138-182.045c2.103-6.941-1.819-14.271-8.76-16.371Z" style="fill:#fff;fill-rule:nonzero"/><circle cx="93.867" cy="245.064" r="13.128" style="fill:#fff"/><circle cx="93.867" cy="360.592" r="13.128" style="fill:#fff"/><path d="M429.292 380.718H307.2c-7.249 0-13.128 5.879-13.128 13.128 0 7.249 5.879 13.128 13.128 13.128h122.092c7.249 0 13.128-5.879 13.128-13.128 0-7.249-5.878-13.128-13.128-13.128Z" style="fill:#fff;fill-rule:nonzero"/></g></svg>